# xmcd CD database file
#
# Track frame offsets:
#	182
#	20827
#	42042
#	55362
#	75317
#	88047
#	100877
#	123580
#	137522
#	142232
#	155920
#	168222
#	199275
#	227367
#	246557
#
# Disc length: 3579 seconds
#
# Revision: 0
# Processed by: cddbd v1.5PL3 Copyright (c) Steve Scherf et al.
# Submitted via: CDex 1.50
#
DISCID=d00df90f
DTITLE=Grant Lee Buffalo - Mighty Joe Moon
DYEAR=1994
DGENRE=Folk/Rock
TTITLE0=Lone Star Song
TTITLE1=Mockingbirds
TTITLE2=It's The Life
TTITLE3=Sing Along
TTITLE4=Mighty Joe Moon
TTITLE5=Demon Called Deception
TTITLE6=Lady Godiva And Me
TTITLE7=Drag
TTITLE8=Last Days Of Tecumseh
TTITLE9=Happiness
TTITLE10=Honey Don't Think
TTITLE11=Side By Side
TTITLE12=Rock Of Ages
TTITLE13=We're Coming Down
TTITLE14=Orpheus
EXTD=YEAR: 1994
EXTT0=
EXTT1=
EXTT2=
EXTT3=
EXTT4=
EXTT5=
EXTT6=
EXTT7=
EXTT8=
EXTT9=
EXTT10=
EXTT11=
EXTT12=
EXTT13=
EXTT14=
PLAYORDER=
